<?xml version="1.0" standalone="no"?>
<!DOCTYPE svg PUBLIC "-//W3C//DTD SVG 20010904//EN"
 "http://www.w3.org/TR/2001/REC-SVG-20010904/DTD/svg10.dtd">
<svg version="1.0" xmlns="http://www.w3.org/2000/svg"
 width="257.000000pt" height="257.000000pt" viewBox="0 0 257.000000 257.000000"
 preserveAspectRatio="xMidYMid meet">
<metadata>
Created by potrace 1.11, written by Peter Selinger 2001-2013
</metadata>
<g transform="translate(0.000000,257.000000) scale(0.100000,-0.100000)"
fill="#000000" stroke="none">
<path d="M297 2368 c-37 -37 -49 -89 -53 -228 -3 -140 12 -241 52 -360 27 -79
91 -210 108 -222 7 -5 6 -21 -2 -50 -36 -126 -45 -189 -46 -313 0 -96 5 -146
18 -190 10 -33 18 -68 19 -77 1 -9 4 -15 7 -13 4 2 12 -12 19 -32 17 -46 61
-110 105 -153 19 -19 32 -38 30 -42 -3 -5 -2 -7 3 -6 4 2 27 -11 50 -27 41
-29 52 -48 35 -59 -9 -5 -8 -46 2 -93 10 -42 56 -84 97 -87 45 -4 119 35 143
77 10 17 20 27 23 21 2 -6 15 -9 30 -6 14 3 23 1 20 -4 -3 -5 9 -10 26 -10 18
-1 50 -5 72 -8 22 -3 65 -7 97 -9 31 -1 54 -5 52 -9 -3 -4 2 -5 11 -2 24 9
147 11 173 2 15 -5 21 -4 17 2 -4 6 9 10 32 11 48 1 91 6 145 19 58 13 78 12
78 -3 0 -17 57 -70 90 -84 89 -37 170 42 157 154 -4 39 -2 48 21 67 14 11 42
35 62 53 30 26 39 30 50 20 12 -10 12 -9 1 5 -11 15 -11 19 3 24 9 3 16 12 16
19 0 7 6 15 13 18 19 7 81 130 107 212 30 94 35 284 11 403 -20 98 -12 122 38
114 22 -3 32 1 41 18 6 12 21 31 32 42 17 17 19 28 13 73 -4 39 -2 62 9 83 21
41 65 194 73 256 11 79 7 218 -6 259 -19 56 -47 70 -149 71 -48 0 -108 -2
-133 -6 -143 -21 -308 -97 -431 -199 l-47 -40 -37 16 c-116 48 -328 67 -464
41 -47 -9 -95 -19 -106 -22 -16 -4 -34 7 -75 45 -158 150 -343 237 -531 248
-93 6 -97 5 -121 -19z m1993 -760 c0 -16 -3 -19 -11 -11 -6 6 -8 16 -5 22 11
17 16 13 16 -11z m-40 -57 c0 -6 -4 -13 -10 -16 -5 -3 -10 1 -10 9 0 9 5 16
10 16 6 0 10 -4 10 -9z"/>
</g>
</svg>
